<?xml version="1.0" standalone="no"?>
<!DOCTYPE svg PUBLIC "-//W3C//DTD SVG 20010904//EN"
 "http://www.w3.org/TR/2001/REC-SVG-20010904/DTD/svg10.dtd">
<svg version="1.0" xmlns="http://www.w3.org/2000/svg"
 width="736.000000pt" height="736.000000pt" viewBox="0 0 736.000000 736.000000"
 preserveAspectRatio="xMidYMid meet">
<metadata>
Created by potrace 1.11, written by Peter Selinger 2001-2013
</metadata>
<g transform="translate(0.000000,736.000000) scale(0.100000,-0.100000)"
fill="#000000" stroke="none">
<path d="M2030 6937 c-19 -7 -38 -14 -43 -15 -4 -1 -19 -5 -35 -8 -42 -10
-136 -63 -196 -111 -70 -54 -154 -156 -191 -230 -16 -32 -34 -61 -40 -65 -5
-4 -7 -8 -3 -8 4 0 -3 -24 -16 -52 -25 -58 -55 -171 -71 -273 -19 -119 -23
-185 -19 -370 3 -207 5 -239 19 -333 3 -26 9 -63 11 -82 10 -69 25 -157 45
-255 26 -121 26 -123 36 -160 19 -63 12 -71 -69 -90 -42 -9 -324 -108 -333
-116 -5 -5 -15 -9 -23 -9 -7 0 -38 -11 -68 -25 -30 -14 -57 -25 -59 -25 -9 0
-224 -106 -290 -143 -38 -22 -101 -60 -138 -86 -38 -25 -76 -50 -85 -56 -65
-42 -204 -171 -268 -252 -22 -26 -41 -50 -44 -53 -8 -8 -38 -60 -69 -120 -91
-174 -103 -401 -32 -580 26 -63 81 -164 108 -198 10 -12 29 -36 43 -53 166
-209 489 -418 895 -579 98 -39 401 -140 420 -140 23 0 24 -12 9 -80 -21 -94
-36 -172 -40 -195 -1 -11 -3 -21 -4 -22 -3 -4 -5 -12 -14 -66 -4 -27 -9 -59
-12 -70 -2 -12 -6 -40 -9 -62 -2 -22 -6 -49 -9 -61 -20 -94 -29 -497 -13 -642
35 -327 167 -589 372 -734 124 -88 240 -120 434 -117 143 1 232 16 354 58 66
23 249 102 257 110 3 4 30 19 60 35 58 31 282 174 290 185 3 4 25 21 50 38 60
42 236 189 344 288 48 44 91 80 96 80 4 0 43 -31 85 -69 42 -39 86 -78 98 -89
12 -10 38 -34 58 -52 20 -19 40 -31 43 -28 3 4 6 2 6 -4 0 -5 28 -32 63 -59
34 -27 67 -52 72 -57 65 -53 326 -224 333 -219 3 2 8 0 11 -5 3 -5 58 -35 121
-66 127 -62 288 -118 395 -137 99 -17 344 -9 410 14 52 19 156 66 165 76 3 3
24 18 48 34 119 81 248 277 294 446 18 67 27 105 33 139 3 19 8 37 10 40 19
32 27 468 11 616 -13 120 -13 126 -20 175 -4 25 -8 56 -10 70 -2 14 -6 36 -9
50 -4 14 -8 39 -11 55 -5 33 -40 196 -56 260 -5 22 -10 43 -10 46 0 9 83 39
150 54 31 7 178 60 189 69 8 6 15 9 15 7 2 -7 77 20 116 40 19 11 39 19 43 19
26 0 311 142 411 204 48 31 92 56 96 56 5 0 10 3 12 8 2 4 37 33 79 64 219
165 368 373 415 578 13 54 11 240 -3 297 -67 278 -295 530 -671 742 -41 22
-78 41 -83 41 -5 0 -9 5 -9 10 0 6 -7 10 -15 10 -8 0 -29 8 -47 18 -58 33
-290 128 -403 166 -60 21 -119 41 -130 46 -11 4 -51 17 -90 28 -80 22 -79 19
-49 137 8 33 17 75 20 94 3 18 8 43 10 55 9 41 34 181 39 221 2 22 7 63 11 90
3 28 8 61 11 75 9 47 11 465 2 520 -5 30 -11 71 -14 90 -22 166 -81 330 -164
460 -37 58 -135 162 -186 197 -81 56 -166 92 -265 113 -55 12 -318 9 -370 -4
-14 -3 -35 -8 -48 -10 -60 -12 -219 -73 -322 -123 -263 -128 -553 -339 -833
-605 -28 -27 -53 -48 -56 -48 -3 0 -28 21 -56 46 -234 216 -352 310 -547 440
-115 76 -331 194 -413 225 -11 4 -40 15 -65 24 -25 10 -52 19 -60 20 -8 1 -31
7 -50 13 -67 22 -96 25 -260 28 -118 3 -175 0 -200 -9z m305 -311 c99 -15 273
-83 410 -160 65 -36 253 -159 293 -190 9 -8 57 -46 105 -84 78 -62 173 -145
275 -240 18 -17 32 -34 32 -39 0 -4 -23 -33 -52 -63 -28 -30 -74 -82 -101
-114 -27 -33 -54 -65 -60 -71 -7 -7 -25 -29 -42 -50 -16 -21 -35 -43 -40 -49
-6 -6 -40 -49 -75 -96 -36 -47 -67 -87 -70 -90 -3 -3 -17 -21 -30 -40 -13 -19
-27 -37 -30 -40 -5 -4 -113 -152 -114 -157 -1 0 -30 -4 -66 -7 -66 -7 -125
-14 -170 -21 -25 -4 -114 -15 -160 -20 -35 -4 -100 -14 -130 -19 -25 -5 -126
-22 -185 -32 -16 -3 -73 -14 -125 -25 -121 -26 -150 -30 -151 -21 -1 7 -2 15
-13 57 -12 49 -48 223 -52 249 -2 15 -5 35 -8 45 -3 9 -8 40 -11 70 -4 30 -8
62 -10 71 -27 141 -27 533 0 660 3 14 10 46 15 72 5 25 21 74 34 109 89 217
221 311 426 302 47 -2 94 -5 105 -7z m2945 -6 c25 -8 52 -19 61 -27 8 -7 20
-13 25 -13 32 0 174 -174 174 -213 0 -7 5 -18 10 -23 13 -13 56 -182 66 -264
16 -125 9 -499 -12 -602 -5 -26 -14 -87 -19 -133 -2 -16 -4 -30 -5 -30 -1 0
-3 -11 -6 -24 -2 -13 -11 -56 -20 -95 -8 -39 -17 -80 -19 -91 -3 -11 -10 -42
-17 -68 -13 -54 -2 -52 -133 -23 -60 14 -172 34 -280 52 -16 3 -42 7 -57 9
-59 10 -85 14 -138 21 -30 4 -66 8 -80 10 -14 2 -45 6 -70 8 -25 3 -61 7 -80
10 -19 3 -62 8 -95 11 -44 5 -63 12 -75 27 -27 38 -80 112 -98 138 -9 14 -19
27 -22 30 -3 3 -19 23 -36 45 -32 44 -143 184 -159 201 -5 6 -21 26 -35 44
-14 18 -35 44 -48 57 -13 13 -20 23 -17 23 3 0 -5 10 -18 23 -39 36 -167 184
-167 192 0 8 44 51 150 145 93 82 113 99 170 143 30 23 57 44 60 47 27 30 302
210 319 210 5 0 11 3 13 8 13 28 313 145 406 158 26 3 48 7 50 9 8 8 162 -4
202 -15z m-1545 -996 c28 -32 58 -66 69 -78 10 -12 35 -41 55 -66 20 -25 38
-47 42 -50 5 -5 96 -116 122 -150 7 -8 27 -34 45 -56 17 -23 32 -43 32 -45 0
-2 -189 -4 -420 -4 -231 0 -420 2 -420 5 1 8 235 297 302 372 35 39 74 84 87
99 13 16 27 29 30 29 3 0 29 -25 56 -56z m460 -779 c141 -10 157 -13 167 -27
4 -7 18 -29 30 -48 12 -19 26 -39 30 -45 7 -9 102 -157 135 -211 46 -74 154
-255 170 -284 99 -177 152 -277 216 -404 l76 -149 -35 -71 c-86 -173 -186
-363 -221 -418 -12 -21 -23 -40 -23 -43 0 -17 -352 -582 -370 -595 -4 -3 -9
-12 -12 -20 -2 -8 -18 -15 -34 -16 -194 -14 -344 -18 -639 -18 -380 0 -625 9
-665 25 -14 5 -37 30 -50 54 -14 25 -28 45 -32 45 -3 0 -10 10 -14 23 -4 12
-10 24 -13 27 -6 5 -86 127 -106 162 -5 9 -44 75 -86 145 -201 336 -392 704
-370 711 6 2 11 9 11 16 0 12 112 235 187 370 23 43 43 82 43 87 0 5 3 9 8 9
4 0 16 20 27 45 11 25 23 45 28 45 4 0 7 4 7 10 0 16 304 508 346 558 4 6 68
11 209 18 72 3 131 7 133 9 6 5 765 -3 847 -10z m628 -61 c90 -11 140 -18 192
-27 17 -3 46 -8 65 -11 19 -3 46 -8 60 -11 52 -10 146 -28 167 -30 11 -2 30
-6 41 -9 11 -4 30 -9 43 -11 12 -2 23 -6 25 -7 7 -7 -121 -368 -192 -540 l-36
-87 -33 62 c-42 82 -102 190 -137 250 -15 26 -28 52 -28 57 0 6 -4 10 -10 10
-5 0 -9 3 -8 8 1 4 -5 18 -13 32 -9 14 -55 89 -103 167 -81 132 -100 173 -76
158 6 -4 25 -8 43 -11z m-2251 -36 c-25 -38 -123 -198 -172 -283 -75 -129 -99
-172 -143 -255 -27 -52 -54 -98 -59 -101 -5 -3 -9 -8 -8 -10 1 -2 -3 -14 -7
-27 l-9 -24 -13 28 c-19 42 -102 253 -117 299 -7 22 -34 99 -58 170 l-45 130
40 12 c22 7 52 14 67 16 15 3 77 14 137 25 165 31 191 35 290 47 33 4 62 9 64
11 2 2 17 4 33 4 l29 0 -29 -42z m-911 -247 c37 -113 153 -428 179 -486 10
-22 36 -85 60 -140 23 -55 48 -113 57 -130 23 -45 32 -82 23 -91 -8 -9 -91
-196 -120 -274 -10 -25 -36 -90 -59 -145 -23 -55 -41 -101 -41 -103 1 -2 -34
-101 -57 -162 -4 -8 -7 -17 -8 -20 -1 -3 -4 -12 -7 -20 -3 -8 -16 -49 -29 -90
-13 -41 -26 -78 -29 -83 -4 -4 -19 -3 -36 2 -16 5 -60 19 -99 31 -74 22 -197
66 -305 107 -125 47 -367 172 -480 248 -161 107 -285 235 -341 352 -40 82 -43
92 -43 177 -1 84 2 97 35 167 43 91 52 102 149 199 91 91 103 101 205 168 44
29 85 55 90 60 21 15 194 101 275 137 47 20 94 40 105 45 60 27 145 58 145 53
0 -3 6 -1 13 5 6 5 46 20 87 32 41 12 97 30 124 40 26 9 54 17 62 17 8 0 26
-37 45 -96z m4259 42 c302 -100 561 -221 741 -345 118 -82 105 -71 189 -153
74 -72 140 -169 167 -245 35 -99 17 -261 -35 -322 -8 -10 -12 -18 -8 -18 10 0
-75 -108 -121 -153 -70 -68 -107 -98 -205 -164 -120 -79 -419 -234 -453 -233
-3 0 -19 -7 -35 -15 -27 -14 -170 -68 -210 -80 -8 -2 -60 -18 -115 -34 -54
-17 -101 -29 -103 -27 -3 4 -110 311 -116 336 -6 24 -150 375 -199 486 l-44
100 39 90 c22 49 49 109 60 133 10 24 28 67 39 95 11 28 26 65 33 81 22 49 92
240 142 387 54 160 24 150 234 81z m-3734 -1270 c4 -10 6 -21 6 -25 -1 -5 2
-8 7 -8 5 0 15 -15 22 -32 7 -18 34 -69 59 -113 25 -44 49 -87 53 -95 4 -8 11
-22 17 -30 5 -8 55 -91 111 -185 55 -93 106 -176 112 -184 27 -33 18 -42 -36
-36 -29 4 -65 9 -80 11 -44 5 -101 14 -127 19 -14 3 -52 10 -85 16 -89 15
-100 17 -100 19 0 1 -13 3 -30 5 -30 4 -51 8 -110 22 -16 4 -37 7 -45 7 -9 1
-14 9 -12 21 9 59 210 605 223 605 4 0 10 -8 15 -17z m3023 -25 c27 -62 87
-216 102 -263 7 -22 16 -44 20 -50 3 -5 18 -48 33 -95 15 -47 31 -94 36 -105
26 -60 23 -65 -55 -81 -11 -2 -29 -6 -40 -8 -49 -11 -184 -35 -220 -41 -22 -3
-48 -8 -58 -11 -9 -3 -38 -7 -65 -9 -26 -2 -47 -4 -47 -5 0 -3 -43 -10 -98
-15 l-58 -5 29 42 c16 24 70 113 121 198 50 85 96 162 101 170 5 8 23 42 41
75 17 33 34 65 39 70 4 6 27 47 50 93 24 45 45 82 46 82 2 0 12 -19 23 -42z
m-3258 -907 c114 -24 148 -31 174 -35 11 -2 49 -9 85 -15 36 -7 79 -14 95 -16
17 -2 48 -7 70 -10 57 -9 83 -13 145 -21 30 -4 66 -8 80 -10 22 -3 101 -12
170 -19 14 -2 35 -3 48 -4 12 -1 26 -9 29 -18 4 -10 9 -20 12 -23 4 -3 38 -48
76 -100 38 -52 75 -101 82 -108 7 -7 13 -17 13 -20 0 -4 10 -18 23 -32 12 -14
38 -45 57 -70 19 -25 42 -52 52 -61 10 -9 18 -21 18 -27 0 -6 3 -12 8 -14 4
-1 45 -47 91 -102 46 -54 103 -119 127 -145 24 -25 44 -51 44 -56 0 -6 -10
-19 -22 -29 -13 -11 -48 -42 -78 -70 -202 -188 -468 -386 -600 -448 -14 -7
-38 -21 -53 -31 -15 -10 -33 -20 -40 -21 -7 -2 -37 -14 -67 -28 -231 -106
-434 -122 -581 -48 -53 27 -130 107 -159 165 -14 28 -28 52 -31 55 -6 5 -51
143 -56 170 -25 149 -31 225 -28 410 2 113 5 212 8 220 3 8 8 38 11 65 11 91
16 130 26 180 5 28 12 62 15 78 9 48 15 77 31 146 18 76 22 93 23 104 1 9 -7
10 102 -12z m3564 -9 c4 -15 9 -38 12 -52 8 -39 9 -44 16 -65 3 -11 8 -36 11
-55 3 -19 8 -46 11 -60 15 -76 35 -197 51 -320 12 -97 12 -426 -1 -515 -47
-331 -177 -511 -394 -546 -77 -12 -207 0 -283 27 -21 7 -38 11 -38 9 0 -2 -21
5 -47 16 -27 12 -64 27 -83 36 -66 28 -174 85 -255 136 -75 46 -315 222 -360
263 -12 11 -59 53 -105 94 -108 95 -142 129 -138 139 3 7 44 55 153 177 22 25
23 26 115 139 36 44 70 85 75 92 35 43 65 82 152 200 54 72 103 138 108 147 6
10 30 18 65 21 95 8 234 24 280 32 19 3 44 7 55 8 18 2 75 10 145 21 14 2 36
6 50 8 14 3 41 8 60 10 19 3 46 8 60 11 79 16 128 25 155 30 17 3 43 9 59 13
53 14 64 12 71 -16z m-1415 -163 c0 -3 -8 -14 -17 -25 -10 -10 -37 -44 -60
-74 -23 -30 -50 -64 -60 -75 -10 -11 -40 -47 -67 -80 -56 -70 -137 -163 -184
-214 l-33 -35 -31 34 c-16 19 -46 53 -66 75 -31 35 -149 174 -189 225 -84 106
-133 168 -133 171 0 2 189 4 420 4 231 0 420 -3 420 -6z"/>
<path d="M3588 4325 c-2 -2 -19 -6 -38 -9 -286 -45 -521 -328 -523 -631 -1
-89 18 -211 34 -221 5 -3 9 -14 9 -24 0 -30 76 -151 132 -211 86 -91 169 -142
308 -189 45 -16 246 -21 297 -9 21 5 47 12 58 14 11 3 31 10 45 16 61 27 95
44 100 49 3 3 17 11 33 19 39 20 138 118 174 171 57 85 98 183 110 265 8 51 8
180 0 220 -23 125 -90 256 -175 342 -58 59 -142 123 -161 123 -6 0 -11 5 -11
12 0 6 -3 8 -7 5 -3 -4 -16 -1 -27 6 -43 28 -179 56 -268 55 -48 0 -88 -1 -90
-3z"/>
</g>
</svg>
